<svg xmlns="http://www.w3.org/2000/svg" height="22.56" width="87.25" viewBox="0 0 87.25 22.56"><path fill="#3d3f56" d="M4.9 2.01A1.79 1.79 0 0 1 5.45.7 1.79 1.79 0 0 1 6.8.15 1.74 1.74 0 0 1 8.1.7a1.79 1.79 0 0 1 .55 1.31v13.75a6.59 6.59 0 0 1-2 4.81 6.59 6.59 0 0 1-4.81 2 1.74 1.74 0 0 1-1.3-.55 1.74 1.74 0 0 1-.55-1.3 1.79 1.79 0 0 1 .55-1.31 1.74 1.74 0 0 1 1.3-.55 3 3 0 0 0 2.19-.91 3 3 0 0 0 .87-2.19V2.01zM23.56 22.56a10.77 10.77 0 0 1-7.92-3.3 10.77 10.77 0 0 1-3.3-7.92 10.82 10.82 0 0 1 3.3-7.94A10.79 10.79 0 0 1 23.56.12 10.85 10.85 0 0 1 31.5 3.4a10.85 10.85 0 0 1 3.28 7.94 10.79 10.79 0 0 1-3.28 7.92 10.82 10.82 0 0 1-7.94 3.3zm0-18.75a7.24 7.24 0 0 0-5.31 2.2 7.27 7.27 0 0 0-2.22 5.33 7.21 7.21 0 0 0 2.22 5.31 7.49 7.49 0 0 0 10.64 0 7.24 7.24 0 0 0 2.2-5.31 7.29 7.29 0 0 0-2.19-5.33 7.29 7.29 0 0 0-5.34-2.2zM49.25 22.56a10.77 10.77 0 0 1-7.92-3.3 10.77 10.77 0 0 1-3.3-7.92 10.82 10.82 0 0 1 3.3-7.94 11.22 11.22 0 0 1 15.86 0 10.85 10.85 0 0 1 3.28 7.94 10.79 10.79 0 0 1-3.28 7.92 10.82 10.82 0 0 1-7.94 3.3zm0-18.75a7.24 7.24 0 0 0-5.35 2.2 7.27 7.27 0 0 0-2.22 5.33 7.21 7.21 0 0 0 2.22 5.31 7.49 7.49 0 0 0 10.64 0 7.24 7.24 0 0 0 2.2-5.31 7.29 7.29 0 0 0-2.2-5.33 7.29 7.29 0 0 0-5.29-2.2zM85.9.15a1.82 1.82 0 0 1 1 .67 1.76 1.76 0 0 1 .38 1.11v18.79a1.77 1.77 0 0 1-.53 1.3 1.85 1.85 0 0 1-2.62 0 1.76 1.76 0 0 1-.53-1.3V8.56l-5.83 9.63-.06.11v.06l-.08.08-.19.12-.06.06-.09.08-.11.06-.11.06h-.09a1.68 1.68 0 0 1-.75.14h-.06a1.8 1.8 0 0 1-.41-.08H75.53l-.12-.06-.11-.08-.4-.12-.07-.06-.06-.06-.08-.08a.15.15 0 0 1 0-.06l-.08-.11-5.89-9.69v12.16a1.74 1.74 0 0 1-.55 1.3 1.79 1.79 0 0 1-1.27.54 1.87 1.87 0 0 1-1.84-1.84V1.94a1.76 1.76 0 0 1 .38-1.11 1.82 1.82 0 0 1 1-.67 1.89 1.89 0 0 1 1.17.06 1.87 1.87 0 0 1 .91.77l7.69 12.7L83.9.99a1.78 1.78 0 0 1 .82-.77L85.3 0z"/></svg>
